<mxfile host="Electron" modified="2023-04-30T11:38:18.980Z" agent="Mozilla/5.0 (Macintosh; Intel Mac OS X 10_15_7) AppleWebKit/537.36 (KHTML, like Gecko) draw.io/21.2.1 Chrome/112.0.5615.87 Electron/24.1.2 Safari/537.36" etag="W9egJqGBrekKenx63UCd" version="21.2.1" type="device">
  <diagram id="R2lEEEUBdFMjLlhIrx00" name="Page-1">
    <mxGraphModel dx="1406" dy="1067" grid="1" gridSize="10" guides="1" tooltips="1" connect="1" arrows="1" fold="1" page="1" pageScale="1" pageWidth="3300" pageHeight="4681" math="0" shadow="0" extFonts="Permanent Marker^https://fonts.googleapis.com/css?family=Permanent+Marker">
      <root>
        <mxCell id="0" />
        <mxCell id="1" parent="0" />
        <mxCell id="20_6diqD-8w0m4eNWyZp-1" value="Product" style="rounded=0;whiteSpace=wrap;html=1;" parent="1" vertex="1">
          <mxGeometry x="1178.34" y="1570" width="120" height="60" as="geometry" />
        </mxCell>
        <mxCell id="20_6diqD-8w0m4eNWyZp-2" value="Order" style="shape=ext;margin=3;double=1;whiteSpace=wrap;html=1;align=center;" parent="1" vertex="1">
          <mxGeometry x="1181.68" y="1210" width="120" height="60" as="geometry" />
        </mxCell>
        <mxCell id="20_6diqD-8w0m4eNWyZp-4" value="PlacedOrder" style="html=1;whiteSpace=wrap;aspect=fixed;shape=isoRectangle;" parent="1" vertex="1">
          <mxGeometry x="1181.6799999999998" y="1325" width="116.66" height="70" as="geometry" />
        </mxCell>
        <mxCell id="20_6diqD-8w0m4eNWyZp-6" value="" style="fontSize=12;html=1;endArrow=ERoneToMany;endFill=0;rounded=0;startArrow=none;startFill=0;entryX=0.5;entryY=0;entryDx=0;entryDy=0;exitX=0.498;exitY=0.98;exitDx=0;exitDy=0;exitPerimeter=0;" parent="1" source="VqJtGBDHk-TSc9aQAwcV-5" target="20_6diqD-8w0m4eNWyZp-1" edge="1">
          <mxGeometry width="100" height="100" relative="1" as="geometry">
            <mxPoint x="1240" y="1520" as="sourcePoint" />
            <mxPoint x="1290" y="1410" as="targetPoint" />
            <Array as="points">
              <mxPoint x="1238" y="1520" />
            </Array>
          </mxGeometry>
        </mxCell>
        <mxCell id="20_6diqD-8w0m4eNWyZp-9" value="User" style="rounded=0;whiteSpace=wrap;html=1;" parent="1" vertex="1">
          <mxGeometry x="1440" y="1330" width="120" height="60" as="geometry" />
        </mxCell>
        <mxCell id="20_6diqD-8w0m4eNWyZp-13" value="" style="fontSize=12;html=1;endArrow=ERmandOne;endFill=0;rounded=0;startArrow=none;startFill=0;entryX=0.486;entryY=0.996;entryDx=0;entryDy=0;entryPerimeter=0;exitX=0.5;exitY=0.019;exitDx=0;exitDy=0;exitPerimeter=0;" parent="1" source="20_6diqD-8w0m4eNWyZp-4" target="20_6diqD-8w0m4eNWyZp-2" edge="1">
          <mxGeometry width="100" height="100" relative="1" as="geometry">
            <mxPoint x="1240" y="1330" as="sourcePoint" />
            <mxPoint x="1239.76" y="1372" as="targetPoint" />
          </mxGeometry>
        </mxCell>
        <mxCell id="j9USI9Z3_Fbh5lsbJid5-7" value="" style="fontSize=12;html=1;endArrow=ERoneToMany;endFill=0;rounded=0;startArrow=none;startFill=0;entryX=0;entryY=0.5;entryDx=0;entryDy=0;exitX=0.997;exitY=0.5;exitDx=0;exitDy=0;exitPerimeter=0;" parent="1" source="20_6diqD-8w0m4eNWyZp-4" target="20_6diqD-8w0m4eNWyZp-9" edge="1">
          <mxGeometry width="100" height="100" relative="1" as="geometry">
            <mxPoint x="1300" y="1360" as="sourcePoint" />
            <mxPoint x="1580" y="1360" as="targetPoint" />
          </mxGeometry>
        </mxCell>
        <mxCell id="j9USI9Z3_Fbh5lsbJid5-8" value="AddedProduct" style="html=1;whiteSpace=wrap;aspect=fixed;shape=isoRectangle;" parent="1" vertex="1">
          <mxGeometry x="1350" y="1502.5" width="116.66" height="70" as="geometry" />
        </mxCell>
        <mxCell id="j9USI9Z3_Fbh5lsbJid5-9" value="" style="fontSize=12;html=1;endArrow=ERzeroToMany;endFill=0;rounded=0;startArrow=none;startFill=0;exitX=-0.001;exitY=0.503;exitDx=0;exitDy=0;exitPerimeter=0;entryX=1;entryY=0.5;entryDx=0;entryDy=0;" parent="1" source="j9USI9Z3_Fbh5lsbJid5-8" target="20_6diqD-8w0m4eNWyZp-1" edge="1">
          <mxGeometry width="100" height="100" relative="1" as="geometry">
            <mxPoint x="1450" y="1440" as="sourcePoint" />
            <mxPoint x="1380" y="1538" as="targetPoint" />
            <Array as="points">
              <mxPoint x="1350" y="1600" />
            </Array>
          </mxGeometry>
        </mxCell>
        <mxCell id="j9USI9Z3_Fbh5lsbJid5-10" value="" style="fontSize=12;html=1;endArrow=ERoneToMany;endFill=0;rounded=0;startArrow=none;startFill=0;exitX=0.5;exitY=0.017;exitDx=0;exitDy=0;exitPerimeter=0;entryX=0.25;entryY=1;entryDx=0;entryDy=0;" parent="1" source="j9USI9Z3_Fbh5lsbJid5-8" target="20_6diqD-8w0m4eNWyZp-9" edge="1">
          <mxGeometry width="100" height="100" relative="1" as="geometry">
            <mxPoint x="1488" y="1500" as="sourcePoint" />
            <mxPoint x="1600" y="1537" as="targetPoint" />
            <Array as="points">
              <mxPoint x="1408" y="1470" />
              <mxPoint x="1470" y="1470" />
            </Array>
          </mxGeometry>
        </mxCell>
        <mxCell id="j9USI9Z3_Fbh5lsbJid5-13" value="UserRole" style="html=1;whiteSpace=wrap;aspect=fixed;shape=isoRectangle;" parent="1" vertex="1">
          <mxGeometry x="1661.67" y="1325" width="116.66" height="70" as="geometry" />
        </mxCell>
        <mxCell id="j9USI9Z3_Fbh5lsbJid5-14" value="" style="fontSize=12;html=1;endArrow=ERzeroToMany;endFill=0;rounded=0;startArrow=none;startFill=0;exitX=0.007;exitY=0.5;exitDx=0;exitDy=0;exitPerimeter=0;entryX=1;entryY=0.5;entryDx=0;entryDy=0;" parent="1" source="j9USI9Z3_Fbh5lsbJid5-13" target="20_6diqD-8w0m4eNWyZp-9" edge="1">
          <mxGeometry width="100" height="100" relative="1" as="geometry">
            <mxPoint x="1661.67" y="1359.7" as="sourcePoint" />
            <mxPoint x="1560" y="1360" as="targetPoint" />
          </mxGeometry>
        </mxCell>
        <mxCell id="j9USI9Z3_Fbh5lsbJid5-46" value="OrderID" style="ellipse;whiteSpace=wrap;html=1;align=center;fontStyle=4;" parent="1" vertex="1">
          <mxGeometry x="1191.68" y="1120" width="100" height="40" as="geometry" />
        </mxCell>
        <mxCell id="j9USI9Z3_Fbh5lsbJid5-47" value="" style="endArrow=none;html=1;rounded=0;exitX=0.5;exitY=1;exitDx=0;exitDy=0;" parent="1" source="j9USI9Z3_Fbh5lsbJid5-46" target="20_6diqD-8w0m4eNWyZp-2" edge="1">
          <mxGeometry relative="1" as="geometry">
            <mxPoint x="1150" y="1160" as="sourcePoint" />
            <mxPoint x="1240" y="1210" as="targetPoint" />
          </mxGeometry>
        </mxCell>
        <mxCell id="j9USI9Z3_Fbh5lsbJid5-49" value="ProductDescription" style="ellipse;whiteSpace=wrap;html=1;align=center;" parent="1" vertex="1">
          <mxGeometry x="1030" y="1525" width="110" height="35" as="geometry" />
        </mxCell>
        <mxCell id="j9USI9Z3_Fbh5lsbJid5-50" value="ProductPrice" style="ellipse;whiteSpace=wrap;html=1;align=center;" parent="1" vertex="1">
          <mxGeometry x="1030" y="1580" width="100" height="40" as="geometry" />
        </mxCell>
        <mxCell id="j9USI9Z3_Fbh5lsbJid5-51" value="ProductID" style="ellipse;whiteSpace=wrap;html=1;align=center;fontStyle=4;" parent="1" vertex="1">
          <mxGeometry x="1188.34" y="1680" width="100" height="40" as="geometry" />
        </mxCell>
        <mxCell id="j9USI9Z3_Fbh5lsbJid5-52" value="OrderNote" style="ellipse;whiteSpace=wrap;html=1;align=center;" parent="1" vertex="1">
          <mxGeometry x="1020" y="1220" width="100" height="40" as="geometry" />
        </mxCell>
        <mxCell id="j9USI9Z3_Fbh5lsbJid5-53" value="" style="endArrow=none;html=1;rounded=0;exitX=1;exitY=0.5;exitDx=0;exitDy=0;entryX=0;entryY=0.5;entryDx=0;entryDy=0;" parent="1" source="j9USI9Z3_Fbh5lsbJid5-52" target="20_6diqD-8w0m4eNWyZp-2" edge="1">
          <mxGeometry relative="1" as="geometry">
            <mxPoint x="1130" y="1190" as="sourcePoint" />
            <mxPoint x="1130" y="1240" as="targetPoint" />
          </mxGeometry>
        </mxCell>
        <mxCell id="j9USI9Z3_Fbh5lsbJid5-54" value="" style="endArrow=none;html=1;rounded=0;exitX=0.5;exitY=1;exitDx=0;exitDy=0;" parent="1" edge="1">
          <mxGeometry relative="1" as="geometry">
            <mxPoint x="1238.22" y="1630" as="sourcePoint" />
            <mxPoint x="1238.22" y="1680" as="targetPoint" />
          </mxGeometry>
        </mxCell>
        <mxCell id="j9USI9Z3_Fbh5lsbJid5-55" value="" style="endArrow=none;html=1;rounded=0;exitX=0;exitY=0.5;exitDx=0;exitDy=0;entryX=1;entryY=0.5;entryDx=0;entryDy=0;" parent="1" source="20_6diqD-8w0m4eNWyZp-1" target="j9USI9Z3_Fbh5lsbJid5-50" edge="1">
          <mxGeometry relative="1" as="geometry">
            <mxPoint x="1178.34" y="1630" as="sourcePoint" />
            <mxPoint x="1138.33" y="1655" as="targetPoint" />
          </mxGeometry>
        </mxCell>
        <mxCell id="j9USI9Z3_Fbh5lsbJid5-56" value="" style="endArrow=none;html=1;rounded=0;entryX=1;entryY=0.5;entryDx=0;entryDy=0;" parent="1" target="j9USI9Z3_Fbh5lsbJid5-49" edge="1">
          <mxGeometry relative="1" as="geometry">
            <mxPoint x="1178.33" y="1570" as="sourcePoint" />
            <mxPoint x="1138.33" y="1552.5" as="targetPoint" />
          </mxGeometry>
        </mxCell>
        <mxCell id="j9USI9Z3_Fbh5lsbJid5-65" value="Password" style="rounded=0;whiteSpace=wrap;html=1;" parent="1" vertex="1">
          <mxGeometry x="1440" y="1060" width="120" height="60" as="geometry" />
        </mxCell>
        <mxCell id="j9USI9Z3_Fbh5lsbJid5-66" value="UserPassword" style="html=1;whiteSpace=wrap;aspect=fixed;shape=isoRectangle;" parent="1" vertex="1">
          <mxGeometry x="1441.67" y="1185" width="116.66" height="70" as="geometry" />
        </mxCell>
        <mxCell id="j9USI9Z3_Fbh5lsbJid5-67" value="" style="fontSize=12;html=1;endArrow=ERoneToMany;endFill=0;rounded=0;startArrow=none;startFill=0;entryX=0.5;entryY=0;entryDx=0;entryDy=0;exitX=0.5;exitY=0.976;exitDx=0;exitDy=0;exitPerimeter=0;" parent="1" source="j9USI9Z3_Fbh5lsbJid5-66" target="20_6diqD-8w0m4eNWyZp-9" edge="1">
          <mxGeometry width="100" height="100" relative="1" as="geometry">
            <mxPoint x="1510" y="1270" as="sourcePoint" />
            <mxPoint x="1450" y="1370" as="targetPoint" />
          </mxGeometry>
        </mxCell>
        <mxCell id="j9USI9Z3_Fbh5lsbJid5-68" value="" style="fontSize=12;html=1;endArrow=ERoneToMany;endFill=0;rounded=0;startArrow=none;startFill=0;entryX=0.5;entryY=1;entryDx=0;entryDy=0;exitX=0.5;exitY=0.021;exitDx=0;exitDy=0;exitPerimeter=0;" parent="1" source="j9USI9Z3_Fbh5lsbJid5-66" target="j9USI9Z3_Fbh5lsbJid5-65" edge="1">
          <mxGeometry width="100" height="100" relative="1" as="geometry">
            <mxPoint x="1510" y="1263" as="sourcePoint" />
            <mxPoint x="1510" y="1340" as="targetPoint" />
          </mxGeometry>
        </mxCell>
        <mxCell id="j9USI9Z3_Fbh5lsbJid5-80" value="" style="fontSize=12;html=1;endArrow=ERoneToMany;endFill=0;rounded=0;startArrow=none;startFill=0;exitX=1.009;exitY=0.516;exitDx=0;exitDy=0;exitPerimeter=0;" parent="1" source="j9USI9Z3_Fbh5lsbJid5-13" edge="1">
          <mxGeometry width="100" height="100" relative="1" as="geometry">
            <mxPoint x="1902" y="1359.69" as="sourcePoint" />
            <mxPoint x="1860" y="1361" as="targetPoint" />
          </mxGeometry>
        </mxCell>
        <mxCell id="j9USI9Z3_Fbh5lsbJid5-81" value="Role" style="rounded=0;whiteSpace=wrap;html=1;" parent="1" vertex="1">
          <mxGeometry x="1860" y="1330" width="120" height="60" as="geometry" />
        </mxCell>
        <mxCell id="j9USI9Z3_Fbh5lsbJid5-82" value="PasswordID" style="ellipse;whiteSpace=wrap;html=1;align=center;fontStyle=4;" parent="1" vertex="1">
          <mxGeometry x="1620" y="1070" width="100" height="40" as="geometry" />
        </mxCell>
        <mxCell id="j9USI9Z3_Fbh5lsbJid5-84" value="" style="endArrow=none;html=1;rounded=0;exitX=1;exitY=0.5;exitDx=0;exitDy=0;entryX=0;entryY=0.5;entryDx=0;entryDy=0;" parent="1" source="j9USI9Z3_Fbh5lsbJid5-65" target="j9USI9Z3_Fbh5lsbJid5-82" edge="1">
          <mxGeometry relative="1" as="geometry">
            <mxPoint x="1590" y="1090" as="sourcePoint" />
            <mxPoint x="1600" y="1100" as="targetPoint" />
          </mxGeometry>
        </mxCell>
        <mxCell id="j9USI9Z3_Fbh5lsbJid5-85" value="RoleID" style="ellipse;whiteSpace=wrap;html=1;align=center;fontStyle=4;" parent="1" vertex="1">
          <mxGeometry x="1870" y="1220" width="100" height="40" as="geometry" />
        </mxCell>
        <mxCell id="j9USI9Z3_Fbh5lsbJid5-86" value="" style="endArrow=none;html=1;rounded=0;exitX=0.5;exitY=1;exitDx=0;exitDy=0;entryX=0.5;entryY=0;entryDx=0;entryDy=0;" parent="1" source="j9USI9Z3_Fbh5lsbJid5-85" target="j9USI9Z3_Fbh5lsbJid5-81" edge="1">
          <mxGeometry relative="1" as="geometry">
            <mxPoint x="1890" y="1280" as="sourcePoint" />
            <mxPoint x="1950" y="1280" as="targetPoint" />
          </mxGeometry>
        </mxCell>
        <mxCell id="j9USI9Z3_Fbh5lsbJid5-87" value="RoleName" style="ellipse;whiteSpace=wrap;html=1;align=center;" parent="1" vertex="1">
          <mxGeometry x="2040" y="1340" width="100" height="40" as="geometry" />
        </mxCell>
        <mxCell id="j9USI9Z3_Fbh5lsbJid5-88" value="" style="endArrow=none;html=1;rounded=0;exitX=1;exitY=0.5;exitDx=0;exitDy=0;entryX=0;entryY=0.5;entryDx=0;entryDy=0;" parent="1" source="j9USI9Z3_Fbh5lsbJid5-81" target="j9USI9Z3_Fbh5lsbJid5-87" edge="1">
          <mxGeometry relative="1" as="geometry">
            <mxPoint x="1980" y="1359.8600000000001" as="sourcePoint" />
            <mxPoint x="2040" y="1359.8600000000001" as="targetPoint" />
          </mxGeometry>
        </mxCell>
        <mxCell id="j9USI9Z3_Fbh5lsbJid5-90" value="UserID" style="ellipse;whiteSpace=wrap;html=1;align=center;fontStyle=4;" parent="1" vertex="1">
          <mxGeometry x="1590" y="1285" width="100" height="40" as="geometry" />
        </mxCell>
        <mxCell id="j9USI9Z3_Fbh5lsbJid5-91" value="" style="endArrow=none;html=1;rounded=0;exitX=1;exitY=0;exitDx=0;exitDy=0;entryX=0;entryY=0.5;entryDx=0;entryDy=0;" parent="1" source="20_6diqD-8w0m4eNWyZp-9" target="j9USI9Z3_Fbh5lsbJid5-90" edge="1">
          <mxGeometry relative="1" as="geometry">
            <mxPoint x="1550" y="1310" as="sourcePoint" />
            <mxPoint x="1610" y="1310" as="targetPoint" />
          </mxGeometry>
        </mxCell>
        <mxCell id="j9USI9Z3_Fbh5lsbJid5-92" value="UserFullName" style="ellipse;whiteSpace=wrap;html=1;align=center;" parent="1" vertex="1">
          <mxGeometry x="1310" y="1285" width="100" height="40" as="geometry" />
        </mxCell>
        <mxCell id="j9USI9Z3_Fbh5lsbJid5-93" value="" style="endArrow=none;html=1;rounded=0;exitX=0;exitY=0;exitDx=0;exitDy=0;entryX=1;entryY=0.5;entryDx=0;entryDy=0;" parent="1" source="20_6diqD-8w0m4eNWyZp-9" target="j9USI9Z3_Fbh5lsbJid5-92" edge="1">
          <mxGeometry relative="1" as="geometry">
            <mxPoint x="1340" y="1330" as="sourcePoint" />
            <mxPoint x="1380" y="1310" as="targetPoint" />
          </mxGeometry>
        </mxCell>
        <mxCell id="j9USI9Z3_Fbh5lsbJid5-94" value="UserEmail" style="ellipse;whiteSpace=wrap;html=1;align=center;" parent="1" vertex="1">
          <mxGeometry x="1309.9999999999998" y="1395" width="100" height="40" as="geometry" />
        </mxCell>
        <mxCell id="j9USI9Z3_Fbh5lsbJid5-95" value="" style="endArrow=none;html=1;rounded=0;exitX=1;exitY=0.5;exitDx=0;exitDy=0;entryX=0;entryY=1;entryDx=0;entryDy=0;" parent="1" source="j9USI9Z3_Fbh5lsbJid5-94" target="20_6diqD-8w0m4eNWyZp-9" edge="1">
          <mxGeometry relative="1" as="geometry">
            <mxPoint x="1460" y="1425" as="sourcePoint" />
            <mxPoint x="1410" y="1395" as="targetPoint" />
          </mxGeometry>
        </mxCell>
        <mxCell id="LpzZig_MaYKqlC0Sr99b-2" value="ProductAddEvent" style="html=1;whiteSpace=wrap;aspect=fixed;shape=isoRectangle;" parent="1" vertex="1">
          <mxGeometry x="1345.83" y="1630" width="124.99" height="75" as="geometry" />
        </mxCell>
        <mxCell id="LpzZig_MaYKqlC0Sr99b-3" value="OrderPlacementEvent" style="html=1;whiteSpace=wrap;aspect=fixed;shape=isoRectangle;" parent="1" vertex="1">
          <mxGeometry x="1645" y="1720" width="149.99" height="90" as="geometry" />
        </mxCell>
        <mxCell id="LpzZig_MaYKqlC0Sr99b-4" value="RoleAssignmentEvent" style="html=1;whiteSpace=wrap;aspect=fixed;shape=isoRectangle;" parent="1" vertex="1">
          <mxGeometry x="1642.92" y="1430" width="154.16" height="92.5" as="geometry" />
        </mxCell>
        <mxCell id="LpzZig_MaYKqlC0Sr99b-5" value="UserRegisterEvent" style="html=1;whiteSpace=wrap;aspect=fixed;shape=isoRectangle;" parent="1" vertex="1">
          <mxGeometry x="1441.6699999999998" y="1540" width="116.66" height="70" as="geometry" />
        </mxCell>
        <mxCell id="LpzZig_MaYKqlC0Sr99b-6" value="UserLoginEvent" style="html=1;whiteSpace=wrap;aspect=fixed;shape=isoRectangle;" parent="1" vertex="1">
          <mxGeometry x="1558.3300000000002" y="1490" width="116.66" height="70" as="geometry" />
        </mxCell>
        <mxCell id="LpzZig_MaYKqlC0Sr99b-7" value="" style="endArrow=ERmandOne;html=1;rounded=0;exitX=0.5;exitY=0.018;exitDx=0;exitDy=0;exitPerimeter=0;entryX=0.5;entryY=0.982;entryDx=0;entryDy=0;entryPerimeter=0;startArrow=none;startFill=0;endFill=0;" parent="1" source="LpzZig_MaYKqlC0Sr99b-4" target="j9USI9Z3_Fbh5lsbJid5-13" edge="1">
          <mxGeometry width="50" height="50" relative="1" as="geometry">
            <mxPoint x="1720" y="1480" as="sourcePoint" />
            <mxPoint x="1720" y="1400" as="targetPoint" />
          </mxGeometry>
        </mxCell>
        <mxCell id="LpzZig_MaYKqlC0Sr99b-8" value="" style="endArrow=none;html=1;rounded=0;entryX=0.5;entryY=0.983;entryDx=0;entryDy=0;entryPerimeter=0;exitX=0.5;exitY=0;exitDx=0;exitDy=0;startArrow=ERmandOne;startFill=0;" parent="1" source="LpzZig_MaYKqlC0Sr99b-9" target="LpzZig_MaYKqlC0Sr99b-4" edge="1">
          <mxGeometry width="50" height="50" relative="1" as="geometry">
            <mxPoint x="1719.8700000000003" y="1587.4399999999998" as="sourcePoint" />
            <mxPoint x="1719.31" y="1578.5" as="targetPoint" />
          </mxGeometry>
        </mxCell>
        <mxCell id="LpzZig_MaYKqlC0Sr99b-9" value="Event" style="shape=ext;margin=3;double=1;whiteSpace=wrap;html=1;align=center;" parent="1" vertex="1">
          <mxGeometry x="1660.8300000000002" y="1590" width="118.33" height="62.5" as="geometry" />
        </mxCell>
        <mxCell id="LpzZig_MaYKqlC0Sr99b-10" value="" style="endArrow=ERmandOne;html=1;rounded=0;entryX=0.5;entryY=1;entryDx=0;entryDy=0;exitX=0.5;exitY=0.027;exitDx=0;exitDy=0;exitPerimeter=0;startArrow=none;startFill=0;endFill=0;" parent="1" source="LpzZig_MaYKqlC0Sr99b-5" target="20_6diqD-8w0m4eNWyZp-9" edge="1">
          <mxGeometry width="50" height="50" relative="1" as="geometry">
            <mxPoint x="1500" y="1540" as="sourcePoint" />
            <mxPoint x="1520" y="1450" as="targetPoint" />
          </mxGeometry>
        </mxCell>
        <mxCell id="LpzZig_MaYKqlC0Sr99b-11" value="" style="endArrow=none;html=1;rounded=0;entryX=0.997;entryY=0.5;entryDx=0;entryDy=0;exitX=0;exitY=0;exitDx=0;exitDy=0;entryPerimeter=0;startArrow=ERmandOne;startFill=0;" parent="1" source="LpzZig_MaYKqlC0Sr99b-9" target="LpzZig_MaYKqlC0Sr99b-5" edge="1">
          <mxGeometry width="50" height="50" relative="1" as="geometry">
            <mxPoint x="1583" y="1729.5" as="sourcePoint" />
            <mxPoint x="1580" y="1577.5" as="targetPoint" />
            <Array as="points">
              <mxPoint x="1558" y="1590" />
            </Array>
          </mxGeometry>
        </mxCell>
        <mxCell id="LpzZig_MaYKqlC0Sr99b-12" value="" style="endArrow=none;html=1;rounded=0;exitX=1;exitY=1;exitDx=0;exitDy=0;endFill=0;startArrow=ERmandOne;startFill=0;entryX=0.001;entryY=0.497;entryDx=0;entryDy=0;entryPerimeter=0;" parent="1" source="20_6diqD-8w0m4eNWyZp-9" target="LpzZig_MaYKqlC0Sr99b-6" edge="1">
          <mxGeometry width="50" height="50" relative="1" as="geometry">
            <mxPoint x="1600" y="1430" as="sourcePoint" />
            <mxPoint x="1530" y="1505" as="targetPoint" />
          </mxGeometry>
        </mxCell>
        <mxCell id="LpzZig_MaYKqlC0Sr99b-13" value="" style="endArrow=none;html=1;rounded=0;entryX=0.998;entryY=0.499;entryDx=0;entryDy=0;entryPerimeter=0;endFill=0;startArrow=ERmandOne;startFill=0;exitX=0.25;exitY=0;exitDx=0;exitDy=0;" parent="1" source="LpzZig_MaYKqlC0Sr99b-9" target="LpzZig_MaYKqlC0Sr99b-6" edge="1">
          <mxGeometry width="50" height="50" relative="1" as="geometry">
            <mxPoint x="1680" y="1550" as="sourcePoint" />
            <mxPoint x="1685.5" y="1567.5" as="targetPoint" />
            <Array as="points">
              <mxPoint x="1690" y="1525" />
            </Array>
          </mxGeometry>
        </mxCell>
        <mxCell id="LpzZig_MaYKqlC0Sr99b-14" value="" style="endArrow=none;html=1;rounded=0;exitX=0.5;exitY=0.98;exitDx=0;exitDy=0;endFill=0;startArrow=ERmandOne;startFill=0;exitPerimeter=0;entryX=0.5;entryY=0.022;entryDx=0;entryDy=0;entryPerimeter=0;" parent="1" source="j9USI9Z3_Fbh5lsbJid5-8" target="LpzZig_MaYKqlC0Sr99b-2" edge="1">
          <mxGeometry width="50" height="50" relative="1" as="geometry">
            <mxPoint x="1484.5" y="1680" as="sourcePoint" />
            <mxPoint x="1408" y="1640" as="targetPoint" />
          </mxGeometry>
        </mxCell>
        <mxCell id="LpzZig_MaYKqlC0Sr99b-15" value="" style="endArrow=none;html=1;rounded=0;endFill=0;startArrow=ERmandOne;startFill=0;entryX=1;entryY=0.499;entryDx=0;entryDy=0;entryPerimeter=0;exitX=-0.002;exitY=0.485;exitDx=0;exitDy=0;exitPerimeter=0;" parent="1" source="LpzZig_MaYKqlC0Sr99b-9" target="LpzZig_MaYKqlC0Sr99b-2" edge="1">
          <mxGeometry width="50" height="50" relative="1" as="geometry">
            <mxPoint x="1650" y="1620" as="sourcePoint" />
            <mxPoint x="1480" y="1670" as="targetPoint" />
            <Array as="points">
              <mxPoint x="1560" y="1620" />
              <mxPoint x="1560" y="1670" />
            </Array>
          </mxGeometry>
        </mxCell>
        <mxCell id="LpzZig_MaYKqlC0Sr99b-16" value="EventID" style="ellipse;whiteSpace=wrap;html=1;align=center;fontStyle=4;" parent="1" vertex="1">
          <mxGeometry x="1840" y="1601.25" width="100" height="40" as="geometry" />
        </mxCell>
        <mxCell id="LpzZig_MaYKqlC0Sr99b-17" value="" style="endArrow=none;html=1;rounded=0;entryX=0;entryY=0.5;entryDx=0;entryDy=0;" parent="1" target="LpzZig_MaYKqlC0Sr99b-16" edge="1">
          <mxGeometry relative="1" as="geometry">
            <mxPoint x="1780" y="1621" as="sourcePoint" />
            <mxPoint x="1820" y="1702.5" as="targetPoint" />
          </mxGeometry>
        </mxCell>
        <mxCell id="LpzZig_MaYKqlC0Sr99b-18" value="" style="endArrow=none;html=1;rounded=0;startArrow=ERmandOne;startFill=0;exitX=0.5;exitY=1;exitDx=0;exitDy=0;entryX=0.5;entryY=0.017;entryDx=0;entryDy=0;entryPerimeter=0;" parent="1" source="LpzZig_MaYKqlC0Sr99b-9" target="LpzZig_MaYKqlC0Sr99b-3" edge="1">
          <mxGeometry width="50" height="50" relative="1" as="geometry">
            <mxPoint x="1720" y="1660" as="sourcePoint" />
            <mxPoint x="1720" y="1710" as="targetPoint" />
          </mxGeometry>
        </mxCell>
        <mxCell id="LpzZig_MaYKqlC0Sr99b-19" value="" style="endArrow=none;html=1;rounded=0;startArrow=ERmandOne;startFill=0;exitX=0.005;exitY=0.502;exitDx=0;exitDy=0;exitPerimeter=0;entryX=0.003;entryY=0.5;entryDx=0;entryDy=0;entryPerimeter=0;" parent="1" source="20_6diqD-8w0m4eNWyZp-4" target="LpzZig_MaYKqlC0Sr99b-3" edge="1">
          <mxGeometry width="50" height="50" relative="1" as="geometry">
            <mxPoint x="1170" y="1370" as="sourcePoint" />
            <mxPoint x="1640" y="1760" as="targetPoint" />
            <Array as="points">
              <mxPoint x="840" y="1360" />
              <mxPoint x="840" y="1760" />
            </Array>
          </mxGeometry>
        </mxCell>
        <mxCell id="YD4lLcaZW8sssFOEBoaY-1" value="EncryptedData" style="ellipse;whiteSpace=wrap;html=1;align=center;" parent="1" vertex="1">
          <mxGeometry x="1450" y="950" width="100" height="40" as="geometry" />
        </mxCell>
        <mxCell id="YD4lLcaZW8sssFOEBoaY-2" value="" style="endArrow=none;html=1;rounded=0;exitX=0.5;exitY=0;exitDx=0;exitDy=0;entryX=0.5;entryY=1;entryDx=0;entryDy=0;" parent="1" source="j9USI9Z3_Fbh5lsbJid5-65" target="YD4lLcaZW8sssFOEBoaY-1" edge="1">
          <mxGeometry relative="1" as="geometry">
            <mxPoint x="1460" y="1030" as="sourcePoint" />
            <mxPoint x="1520" y="1030" as="targetPoint" />
          </mxGeometry>
        </mxCell>
        <mxCell id="VqJtGBDHk-TSc9aQAwcV-1" value="ProductName" style="ellipse;whiteSpace=wrap;html=1;align=center;" parent="1" vertex="1">
          <mxGeometry x="1035" y="1640" width="100" height="40" as="geometry" />
        </mxCell>
        <mxCell id="VqJtGBDHk-TSc9aQAwcV-2" value="" style="endArrow=none;html=1;rounded=0;exitX=0;exitY=1;exitDx=0;exitDy=0;entryX=1;entryY=0.5;entryDx=0;entryDy=0;" parent="1" source="20_6diqD-8w0m4eNWyZp-1" target="VqJtGBDHk-TSc9aQAwcV-1" edge="1">
          <mxGeometry relative="1" as="geometry">
            <mxPoint x="1188" y="1610.5" as="sourcePoint" />
            <mxPoint x="1145" y="1610.5" as="targetPoint" />
          </mxGeometry>
        </mxCell>
        <mxCell id="VqJtGBDHk-TSc9aQAwcV-4" value="OrderItem" style="shape=ext;margin=3;double=1;whiteSpace=wrap;html=1;align=center;" parent="1" vertex="1">
          <mxGeometry x="990.0000000000002" y="1395" width="118.33" height="62.5" as="geometry" />
        </mxCell>
        <mxCell id="VqJtGBDHk-TSc9aQAwcV-5" value="ProductItem" style="html=1;whiteSpace=wrap;aspect=fixed;shape=isoRectangle;" parent="1" vertex="1">
          <mxGeometry x="1100" y="1452.5" width="116.66" height="70" as="geometry" />
        </mxCell>
        <mxCell id="VqJtGBDHk-TSc9aQAwcV-6" value="" style="fontSize=12;html=1;endArrow=ERzeroToMany;endFill=0;rounded=0;startArrow=none;startFill=0;entryX=1;entryY=0.5;entryDx=0;entryDy=0;exitX=0.501;exitY=0.022;exitDx=0;exitDy=0;exitPerimeter=0;" parent="1" source="VqJtGBDHk-TSc9aQAwcV-5" target="VqJtGBDHk-TSc9aQAwcV-4" edge="1">
          <mxGeometry width="100" height="100" relative="1" as="geometry">
            <mxPoint x="1130.66" y="1405.5" as="sourcePoint" />
            <mxPoint x="1202.66" y="1454.5" as="targetPoint" />
            <Array as="points">
              <mxPoint x="1158" y="1426" />
            </Array>
          </mxGeometry>
        </mxCell>
        <mxCell id="VqJtGBDHk-TSc9aQAwcV-7" value="" style="fontSize=12;html=1;endArrow=ERoneToMany;endFill=0;rounded=0;startArrow=none;startFill=0;entryX=0.999;entryY=0.502;entryDx=0;entryDy=0;exitX=0.5;exitY=0.977;exitDx=0;exitDy=0;exitPerimeter=0;entryPerimeter=0;" parent="1" source="20_6diqD-8w0m4eNWyZp-4" target="VqJtGBDHk-TSc9aQAwcV-5" edge="1">
          <mxGeometry width="100" height="100" relative="1" as="geometry">
            <mxPoint x="1178.34" y="1431" as="sourcePoint" />
            <mxPoint x="1250.34" y="1480" as="targetPoint" />
            <Array as="points">
              <mxPoint x="1240" y="1488" />
            </Array>
          </mxGeometry>
        </mxCell>
        <mxCell id="VqJtGBDHk-TSc9aQAwcV-9" value="OrderItemID" style="ellipse;whiteSpace=wrap;html=1;align=center;fontStyle=4;" parent="1" vertex="1">
          <mxGeometry x="849.9999999999999" y="1406.25" width="100" height="40" as="geometry" />
        </mxCell>
        <mxCell id="VqJtGBDHk-TSc9aQAwcV-10" value="" style="endArrow=none;html=1;rounded=0;entryX=1;entryY=0.5;entryDx=0;entryDy=0;exitX=0;exitY=0.5;exitDx=0;exitDy=0;" parent="1" source="VqJtGBDHk-TSc9aQAwcV-4" target="VqJtGBDHk-TSc9aQAwcV-9" edge="1">
          <mxGeometry relative="1" as="geometry">
            <mxPoint x="1050" y="1475" as="sourcePoint" />
            <mxPoint x="921.67" y="1470" as="targetPoint" />
          </mxGeometry>
        </mxCell>
        <mxCell id="VqJtGBDHk-TSc9aQAwcV-16" value="" style="endArrow=none;html=1;rounded=0;endFill=0;startArrow=ERmandOne;startFill=0;exitX=1;exitY=0.79;exitDx=0;exitDy=0;exitPerimeter=0;" parent="1" source="20_6diqD-8w0m4eNWyZp-9" edge="1">
          <mxGeometry width="50" height="50" relative="1" as="geometry">
            <mxPoint x="1643" y="1368" as="sourcePoint" />
            <mxPoint x="1643" y="1476" as="targetPoint" />
            <Array as="points">
              <mxPoint x="1643" y="1377" />
            </Array>
          </mxGeometry>
        </mxCell>
        <mxCell id="VqJtGBDHk-TSc9aQAwcV-17" value="EventTimestamp" style="ellipse;whiteSpace=wrap;html=1;align=center;" parent="1" vertex="1">
          <mxGeometry x="1840" y="1665" width="100" height="40" as="geometry" />
        </mxCell>
        <mxCell id="VqJtGBDHk-TSc9aQAwcV-18" value="" style="endArrow=none;html=1;rounded=0;entryX=0;entryY=0.5;entryDx=0;entryDy=0;exitX=1;exitY=1;exitDx=0;exitDy=0;" parent="1" source="LpzZig_MaYKqlC0Sr99b-9" target="VqJtGBDHk-TSc9aQAwcV-17" edge="1">
          <mxGeometry relative="1" as="geometry">
            <mxPoint x="1778.33" y="1679.66" as="sourcePoint" />
            <mxPoint x="1838.33" y="1679.66" as="targetPoint" />
          </mxGeometry>
        </mxCell>
      </root>
    </mxGraphModel>
  </diagram>
</mxfile>
